<svg width="783" height="796" viewBox="0 0 783 796" fill="none" xmlns="http://www.w3.org/2000/svg">
    <path fill-rule="evenodd" clip-rule="evenodd" d="M317.795 100.098C423.778 108.756 537.055 59.3694 623.98 120.547C721.501 189.182 794.942 307.984 781.384 426.37C768.459 539.233 633.677 581.929 561.125 669.413C472.905 775.79 453.261 957.572 317.795 985.375C176.785 1014.32 44.6958 902.19 -51.4 795.129C-142.138 694.038 -185.535 562.131 -183.959 426.37C-182.402 292.324 -155.412 139.207 -42.9341 66.0668C62.2887 -2.35573 192.656 89.8757 317.795 100.098Z" fill="#00094A" fill-opacity="0.8"/>
    <path fill-rule="evenodd" clip-rule="evenodd" d="M73.9656 49.4322C205.59 -0.536226 329.619 -126.547 460.405 -75.9849C592.312 -24.9894 611.347 145.406 661.941 276.746C712.017 406.737 796.21 538.468 747.622 669.603C697.386 805.186 564.001 913.917 419.726 930.466C291.182 945.211 217.398 793.343 98.266 744.09C-24.9006 693.169 -192.817 749.282 -273.507 643.861C-364.055 525.561 -382.105 344.408 -306.565 215.179C-234.228 91.4311 -60.5002 100.479 73.9656 49.4322Z" fill="#00094A" fill-opacity="0.7"/>
</svg>
