<svg width="375" height="528" viewBox="0 0 375 528" fill="none" xmlns="http://www.w3.org/2000/svg">
    <path fill-rule="evenodd" clip-rule="evenodd" d="M201.198 16.2527C262.026 21.2247 327.04 -7.13744 376.929 27.9961C432.901 67.4123 475.051 135.639 467.27 203.627C459.852 268.443 382.495 292.963 340.855 343.204C290.222 404.295 278.947 508.69 201.198 524.657C120.266 541.278 44.4549 476.885 -10.6983 415.401C-62.7767 357.345 -87.6838 281.593 -86.779 203.627C-85.8856 126.646 -70.3947 38.7122 -5.83938 -3.2912C54.5522 -42.5855 129.375 10.382 201.198 16.2527Z" fill="#00094A" fill-opacity="0.8"/>
    <path fill-rule="evenodd" clip-rule="evenodd" d="M64.6255 42.3756C133.201 16.3421 197.82 -49.309 265.959 -22.9664C334.682 3.60211 344.599 92.3779 370.959 160.805C397.048 228.53 440.913 297.162 415.598 365.483C389.426 436.121 319.932 492.77 244.766 501.392C177.794 509.074 139.353 429.951 77.2859 404.29C13.1165 377.761 -74.3675 406.996 -116.407 352.071C-163.582 290.437 -172.986 196.057 -133.63 128.729C-95.9424 64.2569 -5.43085 68.971 64.6255 42.3756Z" fill="#00094A" fill-opacity="0.7"/>
</svg>
